<svg xmlns="http://www.w3.org/2000/svg" viewBox="0 0 77.44 77.44"><defs><style>.cls-1{fill:#fff;}</style></defs><g id="Layer_2" data-name="Layer 2"><g id="Layer_1-2" data-name="Layer 1"><path d="M0,44.4V0H77.44V77.44H30.3a3.16,3.16,0,0,0-1.3-2c-.95-.69-1.9-1.39-2.9-2a7.63,7.63,0,0,1-2.71-2.85,25.65,25.65,0,0,1-1-2.54,13.3,13.3,0,0,0-2-3.71,3.8,3.8,0,0,1-.36-.53,7.12,7.12,0,0,0-1.94-2.18,2.23,2.23,0,0,1-.95-2.32,3.79,3.79,0,0,0-.09-1.54A4.66,4.66,0,0,0,14.41,55a7.62,7.62,0,0,0-4.92-.3,5.12,5.12,0,0,1-2.69-.19c-.64-.19-.81-.82-1.14-1.28a4.6,4.6,0,0,1-.51-.84,8.45,8.45,0,0,1-.85-2.63,13.42,13.42,0,0,0-.67-3.05A3,3,0,0,0,1,44.48Zm52.34-8.06-.16-.14.45-.74c.52-.89,1.08-1.77,1.56-2.68.35-.67,0-1.17-.73-1.17a1.75,1.75,0,0,0-.77.25,3.81,3.81,0,0,1-1.75.53.9.9,0,0,1,.32-.45,2.82,2.82,0,0,0,.9-1.32,6.26,6.26,0,0,0,.33-3.06c-.05-.43-.21-.55-.64-.52a7.93,7.93,0,0,1-1.09,0c-.37,0-.41-.29-.33-.56A1.19,1.19,0,0,1,50.7,26a.79.79,0,0,0,.13-.9.75.75,0,0,0-.78-.45,2.6,2.6,0,0,1-1.75-1.4,1.64,1.64,0,0,0-.6-.79,14,14,0,0,0-4.25-1.63c-.14,0-.29-.08-.43-.1a32.46,32.46,0,0,1-4-.57,3.56,3.56,0,0,0-1.78,0,6.92,6.92,0,0,0-1.87.65,1.06,1.06,0,0,1-.56.14,2.54,2.54,0,0,0-2.37,1.53,9,9,0,0,1-.52,1c-.16.21-.4.49-.62.5a2.56,2.56,0,0,0-1.72,1c-1.15,1.2-2.81,1.21-4.21,1.84-.07,0-.18,0-.25,0a2.37,2.37,0,0,0-.79.35,5.67,5.67,0,0,0-1.19,1.51,4,4,0,0,1-1.71,1.7c-1.21.81-1.76,2.11-2.6,3.19a18.35,18.35,0,0,1-1.21,1.68,1.56,1.56,0,0,0-.43,1.53,4.31,4.31,0,0,1,0,1,2.52,2.52,0,0,1-.39,1.48.6.6,0,0,0,0,.44,2.51,2.51,0,0,1,.11,1.58c-.06.15.09.39.17.57a2.2,2.2,0,0,0,.3.43c.64.75,1.25,1.53,1.94,2.23s1.49,1.26,2.18,2a8.2,8.2,0,0,1,1.76,3.14,3.48,3.48,0,0,0,1,1.48.88.88,0,0,1,.31.71,2.37,2.37,0,0,0,.5,1.75c.16.24.25.51.39.75a15.85,15.85,0,0,0,1.26,2.16,7.71,7.71,0,0,1,1.62,3,34.33,34.33,0,0,1,.43,3.79c.05.59.34.93.92.94,1,0,1.94,0,2.91,0,.7,0,1.39-.11,2.08-.11s1.51.08,2.27.08a32.61,32.61,0,0,0,7.45-.34A3.31,3.31,0,0,0,47,61.63a2.24,2.24,0,0,1,.51-.8,2.12,2.12,0,0,0,.66-1.37,7,7,0,0,0-2.24-6.16c-.25-.24-.43-.55-.69-.77a4.89,4.89,0,0,0-1.1-.78c-.51-.23-.92,0-1.25.64-.18.35-.34.71-.55,1.13-.31-.45-.29-.44-.1-.76a4.28,4.28,0,0,0,.58-1.2,25.62,25.62,0,0,0,.38-3.14A2.38,2.38,0,0,1,43.74,47c.43-.51.95-1,1.43-1.42a3.17,3.17,0,0,1,2.66-.78,3.63,3.63,0,0,1,.75.29c-.39.28-.62.46-.87.61a9.91,9.91,0,0,0-1,.54.86.86,0,0,0-.36.6.77.77,0,0,0,.44.55,11.56,11.56,0,0,0,1.65.26.38.38,0,0,0,.32-.19c.26-.5.6-.29.85-.07.58.52,1.12,1.08,1.67,1.64a8.62,8.62,0,0,0,1.23,1.32c.67.45,2.3-.54,2.28-1.37a8.3,8.3,0,0,0-.3-1.77c-.15-.58-.42-1.13-.58-1.71s.19-.8.7-.64a8,8,0,0,1,1.11.52c.41.21.63.14.8-.28,0-.08.07-.17.11-.24.27-.54.34-1.2,1.15-1.32.22,0,.46-.5.54-.8.15-.67.13-1.38.33-2a2.88,2.88,0,0,0-.55-2.37,2,2,0,0,1-.28-1.8c.06-.21.1-.52,0-.65a3.17,3.17,0,0,1-.68-1.66c-.09-.6-.35-.73-1-.7a1.48,1.48,0,0,0-1.07.66A11.79,11.79,0,0,1,52.34,36.34Zm7.73,15.34-.17,0a26.43,26.43,0,0,0,.48,3.46,30.67,30.67,0,0,1,.46,4.25A2.29,2.29,0,0,0,61.55,61c.24.22.53.42.8.23a.94.94,0,0,0,.32-.7c0-1-.09-2-.14-2.93s-.1-2-.09-3a4.35,4.35,0,0,1,.29-1.31c.17-.57.41-1.12.59-1.69s.29-1,.4-1.49A13,13,0,0,0,64,48.52a.75.75,0,0,0-.16-.57c-.62-.57-.61-.77-.25-1.52a27.1,27.1,0,0,0,1.09-2.75c.3-.89.52-1.82.76-2.73a8.38,8.38,0,0,0,.26-1.38,1.53,1.53,0,0,1,.4-1,3,3,0,0,0,.4-.84c.08-.22.07-.47.16-.69a5.76,5.76,0,0,0,.71-2.25,1.92,1.92,0,0,1,.11-.37,6.48,6.48,0,0,0,.19-1.07c0-.7,0-1.41,0-2.11-.06-.9-.14-1.81-.27-2.7A6,6,0,0,0,67,26.81,15.51,15.51,0,0,1,65.82,24a2.43,2.43,0,0,1,.05-1.51A1.76,1.76,0,0,0,65,20.13a3.91,3.91,0,0,1-.83-.69c-.45-.44-.8-1.11-1.33-1.31-1.16-.44-1.42-1.78-2.48-2.27-.08,0-.12-.18-.17-.27-.32-.58-.45-.65-1.09-.55a2.32,2.32,0,0,1-1.71-.43c-.74-.49-1.5-.93-2.27-1.37-.6-.35-1.21-.68-1.83-1s-1.22-.52-1.81-.8A3.75,3.75,0,0,1,50.7,11a17.59,17.59,0,0,0-1.46-1.28A4.07,4.07,0,0,0,46,9a.85.85,0,0,1-.48-.11,6,6,0,0,0-3.3-.65,3.39,3.39,0,0,1-.88-.12,5.91,5.91,0,0,0-1.65-.2A3.33,3.33,0,0,1,38,7.73a1.34,1.34,0,0,0-.75-.14,16.16,16.16,0,0,0-2.14.69,1.13,1.13,0,0,0-.59,1.08c0,.47.38.52.67.67a11.28,11.28,0,0,1,1.14.61c.15.11.32.38.28.53-.15.6,0,1.31-.58,1.79a.58.58,0,0,0-.11.57c.07.15.32.22.5.31a.57.57,0,0,0,.26,0,1.16,1.16,0,0,1,1.14.6,1.06,1.06,0,0,0,.69.36,2.59,2.59,0,0,0,.75-.16,5.47,5.47,0,0,1,2.1-.2,9.51,9.51,0,0,0,2.32.16c.63,0,1.24-.37,1.86,0a.25.25,0,0,0,.19,0,1.79,1.79,0,0,1,1.89.5.7.7,0,0,0,.63,0c.09,0,0-.37.07-.57,0,0,0,0,0-.05s0-.39,0-.45a.5.5,0,0,1,.46,0c.26.21.67.48.67.71a1.34,1.34,0,0,0,1,1.47c.46.18.81.69,1.21,1.05s.51.7.19,1.31a2.26,2.26,0,0,0-.34.9c0,.55-.33,1.25.29,1.62A2.58,2.58,0,0,1,53,22.61a2.65,2.65,0,0,0,.51.67c.31.38.62.77,1,1.15a4.85,4.85,0,0,0,.73.77,1.2,1.2,0,0,1,.58,1A1.21,1.21,0,0,0,56,27a2,2,0,0,1,.5,2.25,14.74,14.74,0,0,0-.38,2c0,.41.31.56.65.34a2.5,2.5,0,0,0,.24-.22,3.09,3.09,0,0,1,3-.79,2.71,2.71,0,0,1,1.73,3.61,1,1,0,0,0,.13,1,21.19,21.19,0,0,1,1,2.24.94.94,0,0,1-.14.78,1.85,1.85,0,0,0-.27,1.53,8.91,8.91,0,0,1,0,2.25c-.15.93-.49,1.83-.71,2.75a9.6,9.6,0,0,1-2,4.07.85.85,0,0,0-.12.85C59.82,50.24,59.93,51,60.07,51.68ZM9.72,33.6a3.81,3.81,0,0,0,.89,2.75,2.47,2.47,0,0,0,4.1.08,3.9,3.9,0,0,0,.4-.51c.87-1.37,1.74-2.74,2.59-4.12a1.15,1.15,0,0,0-.29-1.65.85.85,0,0,1-.28-.93c.08-.34.18-.67.24-1,.08-.58.22-.74.83-.79a.92.92,0,0,0,.89-.71,2.43,2.43,0,0,0-.24-2c-.36-.6-.43-.63-1.1-.43s-.94,0-1-.7a2,2,0,0,0-.88-1.65,1.78,1.78,0,0,1-.4-.42c-.51-.7-.88-.78-1.63-.35a6.69,6.69,0,0,0-2,2c-.79,1.1-1.26,2.44-2.46,3.24a2.21,2.21,0,0,0-.56.71c-.33.54-.25,1,.33,1.24a1.07,1.07,0,0,1,.67,1.18C9.76,30.87,9.75,32.24,9.72,33.6ZM53.89,58.76a6.68,6.68,0,0,0,2-1c.32-.21.77-.49.82-.79.15-.81.52-1.52.71-2.3a6.64,6.64,0,0,0,.12-.88.79.79,0,0,0-.13-.52,1,1,0,0,0-1.36,0A7.07,7.07,0,0,0,54.29,56a3.85,3.85,0,0,1-.72,1.13,6.57,6.57,0,0,0-.51.67C52.73,58.44,52.94,58.77,53.89,58.76Zm-9.68-9.55a11.72,11.72,0,0,0,.48,1.55,7.5,7.5,0,0,0,2.66,2.59c.16.13.46.09.7.12,0-.26.14-.58,0-.78a12.83,12.83,0,0,0-.84-1.14,8.61,8.61,0,0,1-.69-1.08c-.12-.23-.15-.52.15-.67s.41-.36.26-.63-.41-.22-.68-.1a.49.49,0,0,1-.66-.24c-.12-.21-.18-.44-.3-.64s-.3-.43-.4-.4a.83.83,0,0,0-.49.41A5.57,5.57,0,0,0,44.21,49.21Zm6,1.25a8.41,8.41,0,0,0-.5-1.1c-.09-.15-.32-.22-.49-.33-.1.16-.27.32-.27.48A2.93,2.93,0,0,1,48.63,51a.48.48,0,0,0,.19.73,1,1,0,0,0,.76-.07A1.58,1.58,0,0,0,50.26,50.46Z"/><path class="cls-1" d="M0,44.4l1,.08a3,3,0,0,1,2.66,2.18,13.42,13.42,0,0,1,.67,3.05,8.45,8.45,0,0,0,.85,2.63,4.6,4.6,0,0,0,.51.84c.33.46.5,1.09,1.14,1.28a5.12,5.12,0,0,0,2.69.19,7.62,7.62,0,0,1,4.92.3,4.66,4.66,0,0,1,2.68,2.86,3.79,3.79,0,0,1,.09,1.54,2.23,2.23,0,0,0,.95,2.32,7.12,7.12,0,0,1,1.94,2.18,3.8,3.8,0,0,0,.36.53,13.3,13.3,0,0,1,2,3.71,25.65,25.65,0,0,0,1,2.54,7.63,7.63,0,0,0,2.71,2.85c1,.6,1.95,1.3,2.9,2a3.16,3.16,0,0,1,1.3,2H0Z"/><path class="cls-1" d="M52.34,36.34a11.79,11.79,0,0,0,2.81-2.15,1.48,1.48,0,0,1,1.07-.66c.6,0,.86.1,1,.7a3.17,3.17,0,0,0,.68,1.66c.11.13.07.44,0,.65a2,2,0,0,0,.28,1.8,2.88,2.88,0,0,1,.55,2.37c-.2.65-.18,1.36-.33,2-.08.3-.32.77-.54.8-.81.12-.88.78-1.15,1.32,0,.07-.07.16-.11.24-.17.42-.39.49-.8.28a8,8,0,0,0-1.11-.52c-.51-.16-.84.14-.7.64s.43,1.13.58,1.71a8.3,8.3,0,0,1,.3,1.77c0,.83-1.61,1.82-2.28,1.37A8.62,8.62,0,0,1,51.32,49c-.55-.56-1.09-1.12-1.67-1.64-.25-.22-.59-.43-.85.07a.38.38,0,0,1-.32.19,11.56,11.56,0,0,1-1.65-.26.77.77,0,0,1-.44-.55.86.86,0,0,1,.36-.6,9.91,9.91,0,0,1,1-.54c.25-.15.48-.33.87-.61a3.63,3.63,0,0,0-.75-.29,3.17,3.17,0,0,0-2.66.78c-.48.47-1,.91-1.43,1.42a2.38,2.38,0,0,0-.54,1.42,25.62,25.62,0,0,1-.38,3.14,4.28,4.28,0,0,1-.58,1.2c-.19.32-.21.31.1.76.21-.42.37-.78.55-1.13.33-.62.74-.87,1.25-.64a4.89,4.89,0,0,1,1.1.78c.26.22.44.53.69.77a7,7,0,0,1,2.24,6.16,2.12,2.12,0,0,1-.66,1.37,2.24,2.24,0,0,0-.51.8,3.31,3.31,0,0,1-2.65,2.11,32.61,32.61,0,0,1-7.45.34c-.76,0-1.52-.09-2.27-.08s-1.38.1-2.08.11c-1,0-1.94,0-2.91,0-.58,0-.87-.35-.92-.94a34.33,34.33,0,0,0-.43-3.79,7.71,7.71,0,0,0-1.62-3,15.85,15.85,0,0,1-1.26-2.16c-.14-.24-.23-.51-.39-.75a2.37,2.37,0,0,1-.5-1.75.88.88,0,0,0-.31-.71,3.48,3.48,0,0,1-1-1.48,8.2,8.2,0,0,0-1.76-3.14c-.69-.69-1.5-1.26-2.18-2s-1.3-1.48-1.94-2.23a2.2,2.2,0,0,1-.3-.43c-.08-.18-.23-.42-.17-.57a2.51,2.51,0,0,0-.11-1.58.6.6,0,0,1,0-.44,2.52,2.52,0,0,0,.39-1.48,4.31,4.31,0,0,0,0-1,1.56,1.56,0,0,1,.43-1.53,18.35,18.35,0,0,0,1.21-1.68c.84-1.08,1.39-2.38,2.6-3.19a4,4,0,0,0,1.71-1.7,5.67,5.67,0,0,1,1.19-1.51,2.37,2.37,0,0,1,.79-.35c.07,0,.18,0,.25,0,1.4-.63,3.06-.64,4.21-1.84a2.56,2.56,0,0,1,1.72-1c.22,0,.46-.29.62-.5a9,9,0,0,0,.52-1A2.54,2.54,0,0,1,34.77,21a1.06,1.06,0,0,0,.56-.14,6.92,6.92,0,0,1,1.87-.65,3.56,3.56,0,0,1,1.78,0,32.46,32.46,0,0,0,4,.57c.14,0,.29.07.43.1a14,14,0,0,1,4.25,1.63,1.64,1.64,0,0,1,.6.79,2.6,2.6,0,0,0,1.75,1.4.75.75,0,0,1,.78.45.79.79,0,0,1-.13.9,1.19,1.19,0,0,0-.27.44c-.08.27,0,.54.33.56a7.93,7.93,0,0,0,1.09,0c.43,0,.59.09.64.52a6.26,6.26,0,0,1-.33,3.06,2.82,2.82,0,0,1-.9,1.32.9.9,0,0,0-.32.45,3.81,3.81,0,0,0,1.75-.53,1.75,1.75,0,0,1,.77-.25c.75,0,1.08.5.73,1.17-.48.91-1,1.79-1.56,2.68l-.45.74Zm-24,15.14a1.62,1.62,0,0,0,0,.38c.06.14.14.27.2.41.5,1.12,1.66,1.59,2.44,2.46s1.55,1.64,1.15,2.93a.55.55,0,0,0,.28.66,1.14,1.14,0,0,1,.5,1,.75.75,0,0,0,1.19.7,2,2,0,0,1,1.43-.15c1,.12,1.92.26,2.89.32s1-.08.81-1a.93.93,0,0,1,.39-1.08c.81-.4.8-1.08.75-1.82a12.85,12.85,0,0,1,0-1.52.82.82,0,0,0-.69-.87c-.36-.05-.53.16-.62.67s-.16.79-.26,1.19-.44,1.09-.15,1.69c0,.05,0,.15-.1.37-.18-.22-.28-.36-.4-.48a4.56,4.56,0,0,0-1-1c-.63-.34-1.4-.4-1.91-1-.1-.12-.38-.07-.55-.14s-.58-.2-.71-.4a2,2,0,0,0-1-.71A10.73,10.73,0,0,1,29,51.82C28.89,51.67,28.64,51.63,28.34,51.48Zm12.38-13a.83.83,0,0,0,.18-1.09,2.93,2.93,0,0,0-2.74-1.83,1,1,0,0,1-.8-.31c-.38-.36-1.14-.36-1.35,0a2,2,0,0,1-1.12.82c-.57.22-.8.52-.44,1.17A16.75,16.75,0,0,0,36,39.43a.7.7,0,0,0,.56.24c.66-.2,1.4-.4,1.55-1.2a7.73,7.73,0,0,0,0-1.52c0-.2,0-.4,0-.6.25,0,.54,0,.72.09a4.53,4.53,0,0,1,.85.79C40,37.61,40.35,38,40.72,38.47Z"/><path class="cls-1" d="M60.07,51.68c-.14-.71-.25-1.44-.43-2.14a.85.85,0,0,1,.12-.85,9.6,9.6,0,0,0,2-4.07c.22-.92.56-1.82.71-2.75a8.91,8.91,0,0,0,0-2.25,1.85,1.85,0,0,1,.27-1.53.94.94,0,0,0,.14-.78,21.19,21.19,0,0,0-1-2.24,1,1,0,0,1-.13-1A2.71,2.71,0,0,0,60,30.51a3.09,3.09,0,0,0-3,.79,2.5,2.5,0,0,1-.24.22c-.34.22-.69.07-.65-.34a14.74,14.74,0,0,1,.38-2A2,2,0,0,0,56,27a1.21,1.21,0,0,1-.27-.76,1.2,1.2,0,0,0-.58-1,4.85,4.85,0,0,1-.73-.77c-.33-.38-.64-.77-1-1.15a2.65,2.65,0,0,1-.51-.67,2.58,2.58,0,0,0-1.21-1.43c-.62-.37-.33-1.07-.29-1.62a2.26,2.26,0,0,1,.34-.9c.32-.61.29-.86-.19-1.31s-.75-.87-1.21-1.05a1.34,1.34,0,0,1-1-1.47c0-.23-.41-.5-.67-.71a.5.5,0,0,0-.46,0c-.08.06,0,.29,0,.45s0,0,0,.05c0,.2,0,.53-.07.57a.7.7,0,0,1-.63,0,1.79,1.79,0,0,0-1.89-.5.25.25,0,0,1-.19,0c-.62-.39-1.23-.07-1.86,0a9.51,9.51,0,0,1-2.32-.16,5.47,5.47,0,0,0-2.1.2,2.59,2.59,0,0,1-.75.16,1.06,1.06,0,0,1-.69-.36,1.16,1.16,0,0,0-1.14-.6.57.57,0,0,1-.26,0c-.18-.09-.43-.16-.5-.31A.58.58,0,0,1,36,13c.6-.48.43-1.19.58-1.79,0-.15-.13-.42-.28-.53A11.28,11.28,0,0,0,35.15,10c-.29-.15-.71-.2-.67-.67a1.13,1.13,0,0,1,.59-1.08,16.16,16.16,0,0,1,2.14-.69,1.34,1.34,0,0,1,.75.14,3.33,3.33,0,0,0,1.77.16,5.91,5.91,0,0,1,1.65.2,3.39,3.39,0,0,0,.88.12,6,6,0,0,1,3.3.65A.85.85,0,0,0,46,9a4.07,4.07,0,0,1,3.2.7A17.59,17.59,0,0,1,50.7,11a3.75,3.75,0,0,0,.74.51c.59.28,1.22.51,1.81.8s1.23.63,1.83,1c.77.44,1.53.88,2.27,1.37a2.32,2.32,0,0,0,1.71.43c.64-.1.77,0,1.09.55.05.09.09.23.17.27,1.06.49,1.32,1.83,2.48,2.27.53.2.88.87,1.33,1.31a3.91,3.91,0,0,0,.83.69,1.76,1.76,0,0,1,.91,2.37A2.43,2.43,0,0,0,65.82,24,15.51,15.51,0,0,0,67,26.81a6,6,0,0,1,.41,1.74c.13.89.21,1.8.27,2.7,0,.7,0,1.41,0,2.11a6.48,6.48,0,0,1-.19,1.07,1.92,1.92,0,0,0-.11.37,5.76,5.76,0,0,1-.71,2.25c-.09.22-.08.47-.16.69a3,3,0,0,1-.4.84,1.53,1.53,0,0,0-.4,1A8.38,8.38,0,0,1,65.41,41c-.24.91-.46,1.84-.76,2.73a27.1,27.1,0,0,1-1.09,2.75c-.36.75-.37,1,.25,1.52a.75.75,0,0,1,.16.57A13,13,0,0,1,63.72,50c-.11.5-.24,1-.4,1.49s-.42,1.12-.59,1.69a4.35,4.35,0,0,0-.29,1.31c0,1,.05,2,.09,3s.13,2,.14,2.93a.94.94,0,0,1-.32.7c-.27.19-.56,0-.8-.23a2.29,2.29,0,0,1-.71-1.55,30.67,30.67,0,0,0-.46-4.25,26.43,26.43,0,0,1-.48-3.46Z"/><path class="cls-1" d="M9.72,33.6c0-1.36,0-2.73.08-4.09a1.07,1.07,0,0,0-.67-1.18c-.58-.26-.66-.7-.33-1.24a2.21,2.21,0,0,1,.56-.71c1.2-.8,1.67-2.14,2.46-3.24a6.69,6.69,0,0,1,2-2c.75-.43,1.12-.35,1.63.35a1.78,1.78,0,0,0,.4.42,2,2,0,0,1,.88,1.65c.1.74.33.91,1,.7s.74-.17,1.1.43a2.43,2.43,0,0,1,.24,2,.92.92,0,0,1-.89.71c-.61.05-.75.21-.83.79-.06.33-.16.66-.24,1a.85.85,0,0,0,.28.93,1.15,1.15,0,0,1,.29,1.65c-.85,1.38-1.72,2.75-2.59,4.12a3.9,3.9,0,0,1-.4.51,2.47,2.47,0,0,1-4.1-.08A3.81,3.81,0,0,1,9.72,33.6Z"/><path class="cls-1" d="M53.89,58.76c-1,0-1.16-.32-.83-1a6.57,6.57,0,0,1,.51-.67A3.85,3.85,0,0,0,54.29,56a7.07,7.07,0,0,1,1.81-2.71,1,1,0,0,1,1.36,0,.79.79,0,0,1,.13.52,6.64,6.64,0,0,1-.12.88c-.19.78-.56,1.49-.71,2.3,0,.3-.5.58-.82.79A6.68,6.68,0,0,1,53.89,58.76Z"/><path class="cls-1" d="M44.21,49.21a5.57,5.57,0,0,1,.22-1,.83.83,0,0,1,.49-.41c.1,0,.3.24.4.4s.18.43.3.64a.49.49,0,0,0,.66.24c.27-.12.53-.19.68.1s0,.48-.26.63-.27.44-.15.67a8.61,8.61,0,0,0,.69,1.08,12.83,12.83,0,0,1,.84,1.14c.11.2,0,.52,0,.78-.24,0-.54,0-.7-.12a7.5,7.5,0,0,1-2.66-2.59A11.72,11.72,0,0,1,44.21,49.21Z"/><path class="cls-1" d="M50.26,50.46a1.58,1.58,0,0,1-.68,1.19,1,1,0,0,1-.76.07.48.48,0,0,1-.19-.73A2.93,2.93,0,0,0,49,49.51c0-.16.17-.32.27-.48.17.11.4.18.49.33A8.41,8.41,0,0,1,50.26,50.46Z"/><path d="M28.34,51.48c.3.15.55.19.69.34a10.73,10.73,0,0,0,3.89,2.23,2,2,0,0,1,1,.71c.13.2.46.29.71.4s.45,0,.55.14c.51.61,1.28.67,1.91,1a4.56,4.56,0,0,1,1,1c.12.12.22.26.4.48.06-.22.13-.32.1-.37-.29-.6,0-1.14.15-1.69s.19-.79.26-1.19.26-.72.62-.67a.82.82,0,0,1,.69.87,12.85,12.85,0,0,0,0,1.52c0,.74.06,1.42-.75,1.82a.93.93,0,0,0-.39,1.08c.17.9.08,1-.81,1s-1.93-.2-2.89-.32a2,2,0,0,0-1.43.15.75.75,0,0,1-1.19-.7,1.14,1.14,0,0,0-.5-1,.55.55,0,0,1-.28-.66c.4-1.29-.38-2.08-1.15-2.93s-1.94-1.34-2.44-2.46c-.06-.14-.14-.27-.2-.41A1.62,1.62,0,0,1,28.34,51.48Z"/><path d="M40.72,38.47c-.37-.45-.69-.86-1-1.24a4.53,4.53,0,0,0-.85-.79c-.18-.12-.47-.06-.72-.09,0,.2,0,.4,0,.6a7.73,7.73,0,0,1,0,1.52c-.15.8-.89,1-1.55,1.2a.7.7,0,0,1-.56-.24,16.75,16.75,0,0,1-1.57-2.21c-.36-.65-.13-.95.44-1.17A2,2,0,0,0,36,35.23c.21-.35,1-.35,1.35,0a1,1,0,0,0,.8.31,2.93,2.93,0,0,1,2.74,1.83A.83.83,0,0,1,40.72,38.47Zm-4.34-1.24c-.15.23-.32.36-.31.48s.19.23.3.35c.11-.11.29-.22.3-.34S36.53,37.46,36.38,37.23Z"/><path class="cls-1" d="M36.38,37.23c.15.23.3.37.29.49s-.19.23-.3.34c-.11-.12-.29-.22-.3-.35S36.23,37.46,36.38,37.23Z"/></g></g></svg>